<svg xmlns:dc="http://purl.org/dc/elements/1.1/" xmlns:cc="http://creativecommons.org/ns#" xmlns:rdf="http://www.w3.org/1999/02/22-rdf-syntax-ns#" xmlns:svg="http://www.w3.org/2000/svg" xmlns="http://www.w3.org/2000/svg" xmlns:xlink="http://www.w3.org/1999/xlink" id="svg454217" viewBox="0 0 1024 768" height="2rem" width="2rem" version="1.1">
  <metadata id="metadata454223">
    <rdf:rdf>
      <cc:work rdf:about="">
        <dc:format>image/svg+xml</dc:format>
        <dc:type rdf:resource="http://purl.org/dc/dcmitype/StillImage"></dc:type>
      </cc:work>
    </rdf:rdf>
  </metadata>
  <defs id="defs454221"></defs>
  <linearGradient spreadMethod="pad" y2="30%" x2="-10%" y1="120%" x1="30%" id="3d_gradient2-logo-98f68e69-f679-4376-8e2e-d73a71cc06dd">
    <stop id="stop454198" stop-opacity="1" stop-color="#ffffff" offset="0%"></stop>
    <stop id="stop454200" stop-opacity="1" stop-color="#000000" offset="100%"></stop>
  </linearGradient>
  <linearGradient gradientTransform="rotate(-30)" spreadMethod="pad" y2="30%" x2="-10%" y1="120%" x1="30%" id="3d_gradient3-logo-98f68e69-f679-4376-8e2e-d73a71cc06dd">
    <stop id="stop454203" stop-opacity="1" stop-color="#ffffff" offset="0%"></stop>
    <stop id="stop454205" stop-opacity="1" stop-color="#cccccc" offset="50%"></stop>
    <stop id="stop454207" stop-opacity="1" stop-color="#000000" offset="100%"></stop>
  </linearGradient>
  <g id="logo-group">
    <image xlink:href="" id="container" x="272" y="144" width="480" height="480" transform="translate(0 0)" style="display: none;"></image>
    <g id="logo-center" transform="translate(181.77937000000003 0)">
      <image xlink:href="" id="icon_container" x="0" y="0" style="display: none;"></image>
      <g id="slogan" style="font-style:normal;font-weight:700;font-size:32px;line-height:1;font-family:'Comfortaa Bold Alt2';font-variant-ligatures:none;text-align:center;text-anchor:middle" transform="translate(0 0)"></g>
      <g id="title" style="font-style:normal;font-weight:700;font-size:72px;line-height:1;font-family:'Comfortaa Bold Alt2';font-variant-ligatures:none;text-align:center;text-anchor:middle" transform="translate(0 0)">
        <path id="path454226" style="font-style:normal;font-weight:700;font-size:72px;line-height:1;font-family:'Comfortaa Bold Alt2';font-variant-ligatures:none;text-align:center;text-anchor:middle" d="m 374.38156,-55.152 c -0.72,0.72 -1.08,1.584 -1.08,2.664 v 48.744 c 0,1.08 0.36,1.944 1.08,2.664 0.72,0.72 1.584,1.08 2.664,1.08 1.08,0 1.944,-0.36 2.664,-1.08 0.72,-0.72 1.08,-1.584 1.08,-2.664 v -48.744 c 0,-1.08 -0.36,-1.944 -1.08,-2.664 -0.72,-0.72 -1.584,-1.08 -2.664,-1.08 -1.08,0 -1.944,0.36 -2.664,1.08 z" stroke-width="0" stroke-linejoin="miter" stroke-miterlimit="2" fill="#fbbb60" stroke="#fbbb60" transform="translate(0 333.64) translate(50 -6.231999999999999) scale(2) translate(-373.30156 56.232)"></path>
        <path id="path454228" style="font-style:normal;font-weight:700;font-size:72px;line-height:1;font-family:'Comfortaa Bold Alt2';font-variant-ligatures:none;text-align:center;text-anchor:middle" d="m 450.46306,-55.152 c -0.72,-0.72 -1.656,-1.08 -2.664,-1.08 -1.44,0 -2.592,0.72 -3.312,2.016 l -20.808,42.84 -21.384,-42.84 c -0.792,-1.296 -1.872,-2.016 -3.312,-2.016 -1.08,0 -1.944,0.36 -2.664,1.08 -0.72,0.72 -1.08,1.656 -1.08,2.664 v 48.744 c 0,1.08 0.36,1.944 1.08,2.664 0.72,0.72 1.584,1.08 2.664,1.08 1.008,0 1.944,-0.36 2.664,-1.08 0.72,-0.72 1.08,-1.584 1.08,-2.664 V -38.88 l 17.208,34.488 c 0.72,1.512 1.872,2.232 3.456,2.232 1.296,0 2.376,-0.576 3.24,-1.872 l 17.424,-35.496 v 35.784 c 0,1.08 0.36,1.944 1.08,2.664 0.72,0.72 1.584,1.08 2.664,1.08 1.008,0 1.872,-0.36 2.592,-1.08 0.72,-0.72 1.152,-1.584 1.152,-2.664 v -48.744 c 0,-1.008 -0.36,-1.944 -1.08,-2.664 z" stroke-width="0" stroke-linejoin="miter" stroke-miterlimit="2" fill="#fbbb60" stroke="#fbbb60" transform="translate(0 333.64) translate(93.875 -6.231999999999999) scale(2) translate(-395.23906 56.232)"></path>
        <path id="path454230" style="font-style:normal;font-weight:700;font-size:72px;line-height:1;font-family:'Comfortaa Bold Alt2';font-variant-ligatures:none;text-align:center;text-anchor:middle" d="m 497.22144,-52.632 c -4.248,-2.376 -9.072,-3.6 -14.472,-3.6 h -13.032 c -1.08,0 -1.944,0.36 -2.664,1.08 -0.72,0.72 -1.08,1.584 -1.08,2.664 v 48.744 c 0,1.08 0.36,1.944 1.08,2.664 0.72,0.72 1.584,1.08 2.664,1.08 h 13.032 c 5.4,0 10.224,-1.152 14.472,-3.6 4.176,-2.376 7.488,-5.688 9.864,-10.008 2.304,-4.248 3.528,-9.072 3.528,-14.544 0,-5.4 -1.224,-10.224 -3.528,-14.472 -2.376,-4.248 -5.688,-7.56 -9.864,-10.008 z m -3.816,43.272 c -3.168,1.872 -6.696,2.736 -10.656,2.736 h -9.288 v -42.984 h 9.288 c 3.96,0 7.488,0.936 10.656,2.736 3.168,1.872 5.616,4.392 7.344,7.632 1.728,3.312 2.664,6.984 2.664,11.088 0,4.176 -0.936,7.848 -2.664,11.16 -1.728,3.312 -4.176,5.832 -7.344,7.632 z" stroke-width="0" stroke-linejoin="miter" stroke-miterlimit="2" fill="#fbbb60" stroke="#fbbb60" transform="translate(0 333.64) translate(235.34376000000003 -6.231999999999999) scale(2) translate(-465.97344 56.232)"></path>
        <path id="path454232" style="font-style:normal;font-weight:700;font-size:72px;line-height:1;font-family:'Comfortaa Bold Alt2';font-variant-ligatures:none;text-align:center;text-anchor:middle" d="m 555.70006,-5.544 c -3.888,3.96 -8.568,5.904 -14.112,5.904 -5.544,0 -10.224,-1.944 -14.112,-5.904 -3.888,-3.888 -5.832,-8.568 -5.832,-14.112 v -33.12 c 0,-0.936 0.288,-1.728 1.008,-2.448 0.648,-0.648 1.44,-1.008 2.448,-1.008 0.936,0 1.728,0.36 2.376,1.008 0.72,0.72 1.08,1.512 1.08,2.448 v 18 c 3.672,-3.24 8.064,-4.824 13.032,-4.824 5.544,0 10.224,1.944 14.112,5.832 3.888,3.888 5.904,8.64 5.904,14.112 0,5.544 -2.016,10.224 -5.904,14.112 z m -14.112,-27.144 c -3.6,0 -6.696,1.296 -9.216,3.816 -2.592,2.52 -3.816,5.616 -3.816,9.216 0,3.6 1.224,6.696 3.816,9.288 2.52,2.52 5.616,3.816 9.216,3.816 3.6,0 6.696,-1.296 9.216,-3.816 2.592,-2.592 3.888,-5.688 3.888,-9.288 0,-3.6 -1.296,-6.696 -3.888,-9.216 -2.52,-2.52 -5.616,-3.816 -9.216,-3.816 z" stroke-width="0" stroke-linejoin="miter" stroke-miterlimit="2" fill="#fbbb60" stroke="#fbbb60" transform="translate(0 333.64) translate(346.68500000000006 -6.231999999999999) scale(2) translate(-521.64406 56.232)"></path>
        <path id="path454234" style="font-style:normal;font-weight:700;font-size:72px;line-height:1;font-family:'Comfortaa Bold Alt2';font-variant-ligatures:none;text-align:center;text-anchor:middle" d="m 571.83706,-55.224 c -0.72,0.72 -1.008,1.584 -1.008,2.592 v 39.312 c 0,2.592 0.432,4.896 1.368,6.912 0.864,2.016 2.16,3.6 3.816,4.752 1.656,1.152 3.528,1.656 5.616,1.656 h 0.144 c 1.44,0 2.592,-0.288 3.528,-1.008 0.864,-0.648 1.368,-1.512 1.368,-2.592 0,-1.008 -0.36,-1.872 -0.936,-2.592 -0.576,-0.648 -1.368,-1.008 -2.304,-1.008 h -1.8 c -1.08,0 -1.944,-0.576 -2.592,-1.728 -0.72,-1.152 -1.008,-2.592 -1.008,-4.392 v -39.312 c 0,-1.008 -0.36,-1.872 -1.008,-2.592 -0.72,-0.648 -1.584,-1.008 -2.592,-1.008 -1.08,0 -1.944,0.36 -2.592,1.008 z" stroke-width="0" stroke-linejoin="miter" stroke-miterlimit="2" fill="#fbbb60" stroke="#fbbb60" transform="translate(0 333.64) translate(445.0550000000001 -6.231999999999999) scale(2) translate(-570.82906 56.232)"></path>
        <path id="path454236" style="font-style:normal;font-weight:700;font-size:72px;line-height:1;font-family:'Comfortaa Bold Alt2';font-variant-ligatures:none;text-align:center;text-anchor:middle" d="m 595.65331,-38.376 c -0.72,0.72 -1.008,1.584 -1.008,2.664 v 32.04 c 0,1.08 0.288,1.944 1.008,2.664 0.72,0.72 1.584,1.008 2.664,1.008 1.08,0 1.944,-0.288 2.664,-1.008 0.648,-0.72 1.008,-1.584 1.008,-2.664 v -32.04 c 0,-1.08 -0.36,-1.944 -1.008,-2.664 -0.72,-0.648 -1.584,-1.008 -2.664,-1.008 -1.08,0 -1.944,0.36 -2.664,1.008 z m 5.976,-15.48 c -0.936,-0.936 -2.016,-1.44 -3.312,-1.44 -1.296,0 -2.448,0.504 -3.384,1.44 -0.936,0.936 -1.368,2.016 -1.368,3.312 0,1.296 0.432,2.448 1.368,3.384 0.936,0.936 2.088,1.368 3.384,1.368 1.296,0 2.376,-0.432 3.312,-1.368 0.936,-0.936 1.44,-2.088 1.44,-3.384 0,-1.296 -0.504,-2.376 -1.44,-3.312 z" stroke-width="0" stroke-linejoin="miter" stroke-miterlimit="2" fill="#fbbb60" stroke="#fbbb60" transform="translate(0 333.64) translate(490.5274999999999 -4.359999999999999) scale(2) translate(-593.56531 55.296)"></path>
        <path id="path454238" style="font-style:normal;font-weight:700;font-size:72px;line-height:1;font-family:'Comfortaa Bold Alt2';font-variant-ligatures:none;text-align:center;text-anchor:middle" d="m 633.50619,0.288 c 5.544,0 10.224,-1.944 14.112,-5.832 3.888,-3.888 5.904,-8.568 5.904,-14.112 0,-5.544 -2.016,-10.224 -5.904,-14.112 -3.888,-3.888 -8.568,-5.904 -14.112,-5.904 -5.544,0 -10.224,2.016 -14.112,5.904 -3.888,3.888 -5.832,8.568 -5.832,14.112 0,5.544 1.944,10.224 5.832,14.112 3.888,3.888 8.568,5.832 14.112,5.832 z m 0,-33.048 c 3.6,0 6.696,1.296 9.288,3.816 2.52,2.592 3.816,5.688 3.816,9.288 0,3.6 -1.296,6.696 -3.816,9.216 -2.592,2.592 -5.688,3.816 -9.288,3.816 -3.6,0 -6.696,-1.224 -9.216,-3.816 -2.592,-2.52 -3.816,-5.616 -3.816,-9.216 0,-3.6 1.224,-6.696 3.816,-9.288 2.52,-2.52 5.616,-3.816 9.216,-3.816 z" stroke-width="0" stroke-linejoin="miter" stroke-miterlimit="2" fill="#fbbb60" stroke="#fbbb60" transform="translate(0 333.64) translate(530.52126 26.888000000000005) scale(2) translate(-613.56219 39.672)"></path>
      </g>
      <image xlink:href="" id="icon" x="0" y="0" style="display: none;"></image>
    </g>
  </g>
</svg>